<svg xmlns="http://www.w3.org/2000/svg" viewBox="0 0 612 374.71"><defs><style>.cls-1{fill:#fefefe;}.cls-2{fill:#00a35e;}.cls-3{fill:#008bf8;}.cls-4{fill:#fece30;}.cls-5{fill:#fd4d3e;}.cls-6{fill:#2099f9;}.cls-7{fill:#20ae72;}</style></defs><g id="Layer_2" data-name="Layer 2"><g id="Layer_1-2" data-name="Layer 1"><path class="cls-1" d="M612,374.71H0V0H612ZM28.17,116.1l-.39.39a9.3,9.3,0,0,0-2.58,7.07c.08,13.08.24,26.17-.06,39.25-.13,5.43,4.71,10,10,10q219.4-.15,438.8,0a10.87,10.87,0,0,0,7.58-2.57l.39-.39c.69-1.35,1.39-2.7,2.08-4.06l.39-.39q0-20.73.07-41.46c0-6.52-3.87-10.34-10.47-10.34q-219.39,0-438.76,0A9.37,9.37,0,0,0,28.17,116.1ZM481.55,346.46l.39-.39a9.31,9.31,0,0,0,2.58-7.05c-.08-13,0-26,0-39,0-6.33-3.92-10.21-10.32-10.21q-219.46,0-438.93,0a9.42,9.42,0,0,0-7.06,2.57l-.39.4a9.31,9.31,0,0,0-2.58,7c.08,13.08.25,26.17-.07,39.24a10.14,10.14,0,0,0,10,10q219.45-.16,438.9-.06A10.82,10.82,0,0,0,481.55,346.46ZM358,261.06H577c.66,0,1.32,0,2,0a7.39,7.39,0,0,0,7.43-7.74c.07-15.37.17-30.75.22-46.12a2.14,2.14,0,0,0-.52-1.25,10.45,10.45,0,0,0-8.32-4Q358,202,138.24,201.9c-4.85,0-9.83,4.81-9.72,9.75q.45,19.74,0,39.49a10.1,10.1,0,0,0,10.15,10Q248.32,261,358,261.06Zm0-236.28H138.18c-5.61,0-9.51,3.87-9.51,9.45,0,13.25.19,26.5-.1,39.74-.11,5.33,4.66,9.89,10,9.88q219.36-.15,438.72-.08c.5,0,1,0,1.49,0a7.47,7.47,0,0,0,7.61-7.84c0-14.73-.08-29.46.07-44.18A5.43,5.43,0,0,0,583,26.19a13.64,13.64,0,0,0-5.34-1.35Q467.79,24.74,357.92,24.78Z"/><path class="cls-2" d="M28.17,292.36a9.42,9.42,0,0,1,7.06-2.57q219.47.06,438.93,0c6.4,0,10.32,3.88,10.32,10.21,0,13,0,26,0,39a9.31,9.31,0,0,1-2.58,7.05l-.39.39A10.82,10.82,0,0,1,474,349q-219.45,0-438.9.06a10.14,10.14,0,0,1-10-10c.32-13.07.15-26.16.07-39.24a9.31,9.31,0,0,1,2.58-7Z"/><path class="cls-3" d="M481.55,170.2a10.87,10.87,0,0,1-7.58,2.57q-219.41-.06-438.8,0c-5.32,0-10.16-4.58-10-10,.3-13.08.14-26.17.06-39.25a9.3,9.3,0,0,1,2.58-7.07l.39-.39a9.37,9.37,0,0,1,7.08-2.57q219.38,0,438.76,0c6.6,0,10.48,3.82,10.47,10.34q0,20.73-.07,41.46l-.39.39c-.69,1.36-1.39,2.71-2.08,4.06Z"/><path class="cls-4" d="M358,261.06q-109.63,0-219.27.09a10.1,10.1,0,0,1-10.15-10q.45-19.74,0-39.49c-.11-4.94,4.87-9.75,9.72-9.75q219.75.16,439.51.07a10.45,10.45,0,0,1,8.32,4,2.14,2.14,0,0,1,.52,1.25c-.05,15.37-.15,30.75-.22,46.12a7.39,7.39,0,0,1-7.43,7.74c-.66,0-1.32,0-2,0Z"/><path class="cls-5" d="M357.92,24.78q109.86,0,219.73.06A13.64,13.64,0,0,1,583,26.19a5.43,5.43,0,0,1,3.45,5.56c-.15,14.72-.07,29.45-.07,44.18a7.47,7.47,0,0,1-7.61,7.84c-.5,0-1,0-1.49,0q-219.36,0-438.72.08c-5.32,0-10.09-4.55-10-9.88.29-13.24.09-26.49.1-39.74,0-5.58,3.9-9.45,9.51-9.45Z"/><path class="cls-6" d="M28.17,116.1l-.39.39Z"/><path class="cls-6" d="M484,165.75l.39-.39Z"/><path class="cls-6" d="M481.55,170.2l.39-.39Z"/><path class="cls-7" d="M28.17,292.36l-.39.4Z"/><path class="cls-7" d="M481.55,346.46l.39-.39Z"/></g></g></svg>