<svg id="Layer_1" data-name="Layer 1" xmlns="http://www.w3.org/2000/svg" viewBox="0 0 851.37 492.16"><defs><style>.cls-1{fill:#00a35e;}.cls-2{fill:#008bf8;}.cls-3{fill:#fd4d3e;}.cls-4{fill:#fece30;}</style></defs><path class="cls-1" d="M538.71,699.56c3-2.93,6.53-3.9,10.69-3.9q332.66.09,665.31.05c10.94,0,17,7.2,15.13,17.88-.4,2.31-.09,4.74-.09,7.11,0,11.35-.08,22.71,0,34.07,0,5.19.36,10.39.68,15.58a13.27,13.27,0,0,1-3.87,10.7l-.6.59c-3.28,2.89-7.09,3.9-11.45,3.9q-332.68-.07-665.35.08c-8,0-15.23-7-15.07-14.88.39-19.83.17-39.68,0-59.53,0-4.29.93-8,4-11.05Z" transform="translate(-534.12 -293.46)"/><path class="cls-2" d="M882.14,428.28h333.08c7.1,0,13.1,4.05,14.73,10.46.54,2.13-.19,4.56-.19,6.86,0,14.35-.07,28.71,0,43.06,0,5.08.55,10.15.63,15.22.11,6.74-7.08,14-13.8,14.19h-1.87q-332.72,0-665.41.11A15,15,0,0,1,534.13,503c.24-20,.07-39.94.07-59.91a14.54,14.54,0,0,1,14.86-14.84Z" transform="translate(-534.12 -293.46)"/><path class="cls-3" d="M1038.61,293.59q166.38,0,332.76,0a15.85,15.85,0,0,1,13,6,5.48,5.48,0,0,1,1.06,3.32c-.07,5.72-.43,11.44-.47,17.16q-.12,19.09,0,38.2c0,4.22.45,8.43.5,12.65.09,7.18-4.36,11.76-11.67,12.19-.87.05-1.75,0-2.62,0q-332.58,0-665.16.13c-8,0-15.23-6.89-15.07-15.06.39-20,.24-39.94-.17-59.9-.15-7.05,7.16-14.82,14.74-14.8Q872,293.75,1038.61,293.59Z" transform="translate(-534.12 -293.46)"/><path class="cls-4" d="M1038.63,652.07q-166,0-332,.16c-9,0-16.06-7.15-15.84-15.53.52-20,.16-39.93.17-59.9,0-8.47,5.94-14.34,14.49-14.34h577c29.72,0,59.45,0,89.17-.05a15.4,15.4,0,0,1,12.84,6.24c.92,1.18,1,3.24,1,4.89-.11,9.58-.54,19.16-.52,28.74,0,12.46.4,24.91.55,37.37.09,7.63-4.51,12.21-12.27,12.42-.87,0-1.75,0-2.62,0Z" transform="translate(-534.12 -293.46)"/></svg>